<svg width="52" height="55" viewBox="0 0 52 55" fill="none" xmlns="http://www.w3.org/2000/svg">
<rect width="52" height="54.6914" rx="10" fill="white"/>
<path d="M26 21.4979V25.0003" stroke="#ADA7A7" stroke-width="1.5" stroke-miterlimit="10" stroke-linecap="round"/>
<path d="M26.0199 16.8281C22.3399 16.8281 19.3599 19.9624 19.3599 23.8328V26.0415C19.3599 26.7567 19.0799 27.8295 18.7299 28.4395L17.4599 30.6693C16.6799 32.0471 17.2199 33.5826 18.6599 34.0875C23.4399 35.7598 28.6099 35.7598 33.3899 34.0875C34.7399 33.6142 35.3199 31.9524 34.5899 30.6693L33.3199 28.4395C32.9699 27.8295 32.6899 26.7462 32.6899 26.0415V23.8328C32.6799 19.9834 29.6799 16.8281 26.0199 16.8281Z" stroke="#ADA7A7" stroke-width="1.5" stroke-miterlimit="10" stroke-linecap="round"/>
<path d="M29.3299 34.5187C29.3299 36.4434 27.8299 38.021 25.9999 38.021C25.0899 38.021 24.2499 37.6214 23.6499 36.9903C23.0499 36.3593 22.6699 35.4758 22.6699 34.5187" stroke="#ADA7A7" stroke-width="1.5" stroke-miterlimit="10"/>
</svg>
