<svg width="24" height="24" viewBox="0 0 24 24" fill="none" xmlns="http://www.w3.org/2000/svg">
<path d="M2 2L22 22M4.93 4.929C3.46349 6.3954 2.48917 8.28148 2.14196 10.3261C1.79474 12.3707 2.0918 14.4727 2.992 16.341C3.13904 16.7119 3.17178 17.1183 3.086 17.508L2.021 20.798C1.98668 20.9648 1.99556 21.1377 2.04678 21.3001C2.09799 21.4626 2.18986 21.6093 2.31367 21.7263C2.43747 21.8433 2.58911 21.9267 2.7542 21.9687C2.91929 22.0106 3.09236 22.0097 3.257 21.966L6.67 20.968C7.03772 20.8951 7.41853 20.9269 7.769 21.06C9.6292 21.9287 11.7117 22.2039 13.7337 21.848C15.7557 21.4922 17.6192 20.5226 19.071 19.071M8.35 2.69C10.1606 1.98282 12.1381 1.81868 14.0405 2.21764C15.943 2.61661 17.6879 3.56139 19.0619 4.93641C20.4358 6.31143 21.3793 8.05708 21.7767 9.95983C22.1742 11.8626 22.0086 13.8399 21.3 15.65" stroke="#AE2222" stroke-opacity="0.71" stroke-width="2" stroke-linecap="round" stroke-linejoin="round"/>
</svg>
